<svg width="660" height="285" viewBox="0 0 660 285" fill="none" xmlns="http://www.w3.org/2000/svg">
<g clip-path="url(#clip0_308_351)">
<path d="M204.165 223.279L186.18 239.131C183.516 241.479 180.095 242.522 176.531 242.507L123.478 239.163L123.364 207.701C130.997 216.361 148.124 217.44 156.783 209.808L159.004 207.851C167.588 218.038 177.821 222.038 190.33 216.535C191.192 216.17 191.832 216.001 192.498 215.414C195.749 213.731 200.07 215.052 201.752 218.304L204.165 223.279Z" fill="#F57601" stroke="black" stroke-width="2" stroke-miterlimit="10" stroke-linecap="round" stroke-linejoin="round"/>
<path d="M122.952 247.518L180.182 251.125C183.523 251.336 187.166 250.097 189.831 247.749L210.036 229.94" stroke="black" stroke-width="2" stroke-miterlimit="10" stroke-linecap="round" stroke-linejoin="round"/>
<path d="M146.002 231.147C147.841 229.525 148.018 226.72 146.397 224.881C144.776 223.041 141.97 222.864 140.131 224.486C138.291 226.107 138.115 228.912 139.736 230.752C141.357 232.591 144.163 232.768 146.002 231.147Z" fill="black" stroke="black" stroke-width="2" stroke-miterlimit="10" stroke-linecap="round" stroke-linejoin="round"/>
<path d="M159.907 226.781L169.899 217.974" stroke="black" stroke-width="2" stroke-miterlimit="10" stroke-linecap="round" stroke-linejoin="round"/>
<path d="M170.219 229.527L182.431 218.764" stroke="black" stroke-width="2" stroke-miterlimit="10" stroke-linecap="round" stroke-linejoin="round"/>
<path d="M153.545 161.373L151.623 191.868C151.175 198.97 154.54 205.473 160.373 209.405" stroke="black" stroke-width="5" stroke-miterlimit="10" stroke-linecap="round" stroke-linejoin="round"/>
<path d="M125.321 209.922C128.366 204.871 129.401 198.436 128.294 192.704L126.901 184.858" stroke="black" stroke-width="5" stroke-miterlimit="10" stroke-linecap="round" stroke-linejoin="round"/>
</g>
<g clip-path="url(#clip1_308_351)">
<path d="M101.861 235.085L78.7604 228.675C75.3381 227.726 72.5966 225.429 70.663 222.435L44.4939 176.165L70.7885 158.889C67.7021 170.012 76.1504 184.95 87.2729 188.036L90.1248 188.827C86.2785 201.582 88.5152 212.339 99.9558 219.813C100.732 220.336 101.223 220.779 102.079 221.017C105.264 222.822 106.517 227.163 104.711 230.348L101.861 235.085Z" fill="black" stroke="black" stroke-width="2" stroke-miterlimit="10" stroke-linecap="round" stroke-linejoin="round"/>
<path d="M37.2073 180.287L65.4369 230.2C67.0854 233.115 70.112 235.49 73.5343 236.44L99.4869 243.641" stroke="black" stroke-width="5" stroke-miterlimit="10" stroke-linecap="round" stroke-linejoin="round"/>
<path d="M63.5093 190.656C65.8719 191.312 68.3187 189.928 68.9743 187.566C69.6299 185.203 68.246 182.756 65.8834 182.101C63.5208 181.445 61.0741 182.829 60.4185 185.191C59.7629 187.554 61.1467 190.001 63.5093 190.656Z" fill="#F57601" stroke="black" stroke-width="2" stroke-miterlimit="10" stroke-linecap="round" stroke-linejoin="round"/>
<path d="M74.7602 199.922L87.5939 203.483" stroke="#F57601" stroke-width="2" stroke-miterlimit="10" stroke-linecap="round" stroke-linejoin="round"/>
<path d="M78.09 210.06L93.7756 214.413" stroke="#F57601" stroke-width="2" stroke-miterlimit="10" stroke-linecap="round" stroke-linejoin="round"/>
<path d="M126.08 158.875L99.4839 173.917C93.2903 177.42 89.6799 183.79 89.5708 190.824" stroke="#F57601" stroke-width="5" stroke-miterlimit="10" stroke-linecap="round" stroke-linejoin="round"/>
<path d="M69.997 161.741C75.8905 161.534 81.8467 158.887 86.044 154.83L91.8569 149.378" stroke="#F57601" stroke-width="5" stroke-miterlimit="10" stroke-linecap="round" stroke-linejoin="round"/>
</g>
<g clip-path="url(#clip2_308_351)">
<path d="M173.385 49.0615L197.022 53.0589C200.524 53.6511 203.488 55.653 205.719 58.4318L236.514 101.761L212.138 121.653C214.063 110.271 204.121 96.2833 192.74 94.3587L189.822 93.8652C192.334 80.7823 189.002 70.3131 176.852 64.0562C176.026 63.6163 175.492 63.2258 174.616 63.0777C171.263 61.6101 169.569 57.4215 171.037 54.0677L173.385 49.0615Z" fill="#F57601" stroke="black" stroke-width="2" stroke-miterlimit="10" stroke-linecap="round" stroke-linejoin="round"/>
<path d="M243.337 96.9116L210.118 50.1705C208.178 47.4411 204.923 45.3898 201.421 44.7976L174.865 40.3068" stroke="black" stroke-width="2" stroke-miterlimit="10" stroke-linecap="round" stroke-linejoin="round"/>
<path d="M216.107 89.305C213.69 88.8962 211.399 90.5246 210.99 92.9422C210.581 95.3597 212.209 97.651 214.627 98.0598C217.045 98.4686 219.336 96.8402 219.745 94.4227C220.153 92.0051 218.525 89.7138 216.107 89.305Z" fill="black" stroke="black" stroke-width="2" stroke-miterlimit="10" stroke-linecap="round" stroke-linejoin="round"/>
<path d="M203.962 81.2478L190.83 79.0271" stroke="black" stroke-width="2" stroke-miterlimit="10" stroke-linecap="round" stroke-linejoin="round"/>
<path d="M199.606 71.5061L183.556 68.7919" stroke="black" stroke-width="2" stroke-miterlimit="10" stroke-linecap="round" stroke-linejoin="round"/>
<path d="M157.142 127.361L182.048 109.66C187.848 105.538 190.783 98.8304 190.167 91.8223" stroke="black" stroke-width="5" stroke-miterlimit="10" stroke-linecap="round" stroke-linejoin="round"/>
<path d="M212.632 118.734C206.791 119.548 201.139 122.794 197.382 127.262L192.161 133.283" stroke="black" stroke-width="5" stroke-miterlimit="10" stroke-linecap="round" stroke-linejoin="round"/>
</g>
<g clip-path="url(#clip3_308_351)">
<path d="M239.425 121.141L246.917 143.914C248.027 147.287 247.639 150.842 246.222 154.113L222.264 201.565L193.297 189.284C204.262 185.677 211.997 170.358 208.39 159.393L207.465 156.582C220.209 152.7 227.914 144.869 227.78 131.203C227.784 130.267 227.88 129.613 227.603 128.769C227.336 125.118 230.251 121.666 233.902 121.4L239.425 121.141Z" fill="black" stroke="black" stroke-width="2" stroke-miterlimit="10" stroke-linecap="round" stroke-linejoin="round"/>
<path d="M229.736 205.338L255.582 154.149C257.091 151.16 257.387 147.324 256.277 143.95L247.86 118.366" stroke="black" stroke-width="5" stroke-miterlimit="10" stroke-linecap="round" stroke-linejoin="round"/>
<path d="M223.761 177.704C222.995 175.375 220.485 174.108 218.156 174.874C215.827 175.641 214.56 178.15 215.327 180.479C216.093 182.808 218.602 184.075 220.931 183.309C223.26 182.542 224.527 180.033 223.761 177.704Z" fill="#F57601" stroke="black" stroke-width="2" stroke-miterlimit="10" stroke-linecap="round" stroke-linejoin="round"/>
<path d="M225.222 163.203L221.059 150.551" stroke="#F57601" stroke-width="2" stroke-miterlimit="10" stroke-linecap="round" stroke-linejoin="round"/>
<path d="M231.806 154.805L226.719 139.342" stroke="#F57601" stroke-width="2" stroke-miterlimit="10" stroke-linecap="round" stroke-linejoin="round"/>
<path d="M162.591 143.303L189.867 157.074C196.219 160.281 203.521 159.748 209.433 155.934" stroke="#F57601" stroke-width="5" stroke-miterlimit="10" stroke-linecap="round" stroke-linejoin="round"/>
<path d="M196.109 188.359C192.665 183.572 187.156 180.088 181.452 178.849L173.691 177.04" stroke="#F57601" stroke-width="5" stroke-miterlimit="10" stroke-linecap="round" stroke-linejoin="round"/>
</g>
<g clip-path="url(#clip4_308_351)">
<path d="M74.9134 65.0438L91.8063 48.0333C94.309 45.5132 97.6531 44.2459 101.21 44.0243L154.367 43.84L156.569 75.2248C148.379 67.0912 131.218 67.1507 123.084 75.3409L120.999 77.441C111.757 67.846 101.281 64.5338 89.1648 70.8543C88.3291 71.2758 87.702 71.4872 87.0763 72.1172C83.9436 74.0116 79.5451 72.9805 77.6507 69.8478L74.9134 65.0438Z" fill="black" stroke="black" stroke-width="2" stroke-miterlimit="10" stroke-linecap="round" stroke-linejoin="round"/>
<path d="M154.339 35.4688L96.9956 35.6675C93.6471 35.6792 90.0944 37.1565 87.5918 39.6765L68.6132 58.7871" stroke="black" stroke-width="5" stroke-miterlimit="10" stroke-linecap="round" stroke-linejoin="round"/>
<path d="M132.426 53.3339C130.698 55.0736 130.708 57.8846 132.447 59.6123C134.187 61.34 136.998 61.3303 138.726 59.5905C140.454 57.8508 140.444 55.0398 138.704 53.3121C136.964 51.5844 134.153 51.5941 132.426 53.3339Z" fill="#F57601" stroke="black" stroke-width="2" stroke-miterlimit="10" stroke-linecap="round" stroke-linejoin="round"/>
<path d="M118.841 58.613L109.456 68.0633" stroke="#F57601" stroke-width="2" stroke-miterlimit="10" stroke-linecap="round" stroke-linejoin="round"/>
<path d="M108.369 56.5564L96.8987 68.1067" stroke="#F57601" stroke-width="2" stroke-miterlimit="10" stroke-linecap="round" stroke-linejoin="round"/>
<path d="M129.53 123.454L129.424 92.8988C129.399 85.7833 125.61 79.5179 119.529 75.9812" stroke="#F57601" stroke-width="5" stroke-miterlimit="10" stroke-linecap="round" stroke-linejoin="round"/>
<path d="M154.469 73.1393C151.767 78.3807 151.161 84.8706 152.646 90.5161L154.556 98.253" stroke="#F57601" stroke-width="5" stroke-miterlimit="10" stroke-linecap="round" stroke-linejoin="round"/>
</g>
<g clip-path="url(#clip5_308_351)">
<path d="M39.7123 161.07L34.0737 137.769C33.2384 134.317 33.911 130.804 35.5858 127.658L63.2788 82.284L91.1649 96.8517C79.9459 99.5666 71.0057 114.215 73.7205 125.434L74.4166 128.311C61.402 131.156 53.0924 138.343 52.128 151.975C52.0492 152.908 51.9007 153.552 52.1096 154.415C52.0819 158.076 48.8991 161.283 45.2383 161.255L39.7123 161.07Z" fill="#F57601" stroke="black" stroke-width="2" stroke-miterlimit="10" stroke-linecap="round" stroke-linejoin="round"/>
<path d="M56.1332 77.9231L26.2596 126.87C24.5152 129.728 23.9122 133.529 24.7476 136.981L31.0822 163.158" stroke="black" stroke-width="2" stroke-miterlimit="10" stroke-linecap="round" stroke-linejoin="round"/>
<path d="M59.8696 105.948C60.4463 108.331 62.8457 109.795 65.2288 109.218C67.6119 108.642 69.0763 106.242 68.4996 103.859C67.9229 101.476 65.5236 100.012 63.1404 100.588C60.7573 101.165 59.2929 103.564 59.8696 105.948Z" fill="black" stroke="black" stroke-width="2" stroke-miterlimit="10" stroke-linecap="round" stroke-linejoin="round"/>
<path d="M57.2488 120.285L60.3814 133.23" stroke="black" stroke-width="2" stroke-miterlimit="10" stroke-linecap="round" stroke-linejoin="round"/>
<path d="M50.011 128.126L53.8397 143.948" stroke="black" stroke-width="2" stroke-miterlimit="10" stroke-linecap="round" stroke-linejoin="round"/>
<path d="M118.078 145.151L91.997 129.233C85.9233 125.526 78.6016 125.471 72.403 128.798" stroke="black" stroke-width="5" stroke-miterlimit="10" stroke-linecap="round" stroke-linejoin="round"/>
<path d="M88.2882 97.548C91.3368 102.596 96.5476 106.512 102.134 108.205L109.725 110.631" stroke="black" stroke-width="5" stroke-miterlimit="10" stroke-linecap="round" stroke-linejoin="round"/>
</g>
<path d="M337.4 179.4C337.267 179.467 337.133 179.5 337 179.5C336.867 179.5 336.6 179.5 336.2 179.5C335.267 179.5 334.167 179.333 332.9 179C331.7 178.733 330.5 178.367 329.3 177.9C328.167 177.5 327.167 177.033 326.3 176.5C325.5 175.967 325 175.5 324.8 175.1C324.733 174.167 324.7 173.2 324.7 172.2C324.7 171.2 324.7 170.233 324.7 169.3C324.7 161.833 325.233 154.033 326.3 145.9C327.433 137.767 329.267 128.967 331.8 119.5C332.067 118.567 332.333 117.4 332.6 116C332.933 114.533 333.267 112.967 333.6 111.3C332 112.567 330.1 114.6 327.9 117.4C325.7 120.133 323.367 123.4 320.9 127.2C318.5 130.933 316.067 135.067 313.6 139.6C311.2 144.067 309 148.633 307 153.3C305 157.9 303.267 162.467 301.8 167C300.4 171.533 299.533 175.733 299.2 179.6C296 178.667 293.767 177.733 292.5 176.8C291.3 175.867 290.7 174.733 290.7 173.4C290.7 172.2 291.067 170.5 291.8 168.3C292.533 166.1 293.567 163.5 294.9 160.5C296.233 157.5 297.867 154.167 299.8 150.5C301.733 146.767 303.867 142.767 306.2 138.5C308.867 133.633 311.467 129.067 314 124.8C316.6 120.533 319.133 116.667 321.6 113.2C324.067 109.733 326.467 106.733 328.8 104.2C331.2 101.667 333.567 99.7333 335.9 98.4C336.833 98.4 338.067 98.6333 339.6 99.1C341.2 99.5667 342.733 100.133 344.2 100.8C345.733 101.467 347.067 102.167 348.2 102.9C349.4 103.567 350.067 104.133 350.2 104.6C349.267 106.467 348.167 109.267 346.9 113C345.633 116.733 344.333 120.967 343 125.7C341.733 130.433 340.5 135.467 339.3 140.8C338.167 146.067 337.267 151.133 336.6 156C338.133 152.333 339.9 148.533 341.9 144.6C343.967 140.6 346.133 136.667 348.4 132.8C350.667 128.867 352.967 125.067 355.3 121.4C357.7 117.733 360.033 114.4 362.3 111.4C364.567 108.333 366.667 105.667 368.6 103.4C370.6 101.133 372.367 99.4667 373.9 98.4C374.833 98.4 376.067 98.6333 377.6 99.1C379.2 99.5667 380.733 100.133 382.2 100.8C383.733 101.467 385.067 102.167 386.2 102.9C387.4 103.567 388.067 104.133 388.2 104.6C386.067 108.4 384.2 113.033 382.6 118.5C381 123.967 379.633 129.7 378.5 135.7C377.433 141.7 376.6 147.667 376 153.6C375.467 159.467 375.2 164.733 375.2 169.4C375.2 170.933 375.2 172.533 375.2 174.2C375.2 175.867 375.267 177.6 375.4 179.4C374.467 179.4 373.333 179.267 372 179C370.733 178.8 369.467 178.5 368.2 178.1C367 177.7 365.9 177.233 364.9 176.7C363.9 176.233 363.2 175.7 362.8 175.1C362.733 174.167 362.7 173.2 362.7 172.2C362.7 171.2 362.7 170.233 362.7 169.3C362.7 161.833 363.233 154.033 364.3 145.9C365.433 137.767 367.267 128.967 369.8 119.5C370.067 118.567 370.367 117.3 370.7 115.7C371.033 114.1 371.367 112.433 371.7 110.7C369.833 111.633 367.7 113.433 365.3 116.1C362.967 118.7 360.567 121.9 358.1 125.7C355.7 129.433 353.3 133.6 350.9 138.2C348.567 142.8 346.433 147.5 344.5 152.3C342.633 157.033 341.033 161.767 339.7 166.5C338.433 171.167 337.667 175.467 337.4 179.4ZM399.004 175.5C395.204 175.1 392.171 173.433 389.904 170.5C387.637 167.567 386.504 163.833 386.504 159.3C386.504 156.633 386.904 153.867 387.704 151C388.504 148.133 389.637 145.367 391.104 142.7C392.571 139.967 394.304 137.4 396.304 135C398.304 132.6 400.471 130.533 402.804 128.8C406.471 126.067 409.904 124.7 413.104 124.7C415.237 125.833 417.337 128.2 419.404 131.8C419.737 131.8 420.037 131.8 420.304 131.8C420.571 131.733 420.871 131.7 421.204 131.7C424.737 131.7 426.504 134.833 426.504 141.1C426.504 145.3 425.804 149.3 424.404 153.1C423.071 156.833 421.171 160.233 418.704 163.3C416.304 166.367 413.404 168.967 410.004 171.1C406.671 173.167 403.004 174.633 399.004 175.5ZM404.104 144C402.971 145.533 401.904 147.2 400.904 149C399.904 150.8 399.037 152.633 398.304 154.5C397.571 156.3 397.004 158.067 396.604 159.8C396.204 161.467 396.004 162.967 396.004 164.3C396.004 165.9 396.271 167.433 396.804 168.9C397.337 170.367 397.937 171.2 398.604 171.4C401.604 170.733 404.337 169.5 406.804 167.7C409.337 165.833 411.504 163.533 413.304 160.8C415.171 158.067 416.604 154.967 417.604 151.5C418.671 148.033 419.204 144.333 419.204 140.4C419.204 138.667 419.104 137.3 418.904 136.3C418.704 135.3 418.371 134.433 417.904 133.7C414.971 134.567 412.337 135.967 410.004 137.9C407.737 139.833 405.771 141.867 404.104 144ZM436.161 136.6C436.161 135.4 436.228 134.267 436.361 133.2C436.561 132.133 436.928 131.233 437.461 130.5C437.994 129.7 438.728 129.1 439.661 128.7C440.594 128.233 441.828 128 443.361 128C444.294 128 445.328 128.1 446.461 128.3C447.661 128.5 448.528 128.867 449.061 129.4C448.794 130.533 448.561 131.533 448.361 132.4C448.228 133.267 448.094 134.233 447.961 135.3C447.894 136.3 447.828 137.533 447.761 139C447.694 140.4 447.628 142.233 447.561 144.5C447.428 149.033 447.194 153.1 446.861 156.7C446.594 160.233 445.928 163.767 444.861 167.3C444.861 167.567 444.961 167.7 445.161 167.7C446.161 166.967 447.294 165.9 448.561 164.5C449.828 163.1 451.161 161.533 452.561 159.8C453.961 158 455.361 156.1 456.761 154.1C458.161 152.1 459.461 150.133 460.661 148.2C462.261 145.4 464.028 141.9 465.961 137.7C467.894 133.5 469.494 129 470.761 124.2C471.161 124.2 471.661 124.3 472.261 124.5C472.928 124.633 473.561 124.833 474.161 125.1C474.828 125.3 475.394 125.533 475.861 125.8C476.394 126.067 476.761 126.3 476.961 126.5C476.828 129.367 476.128 132.3 474.861 135.3C473.661 138.3 472.194 141.2 470.461 144C468.728 146.8 466.894 149.433 464.961 151.9C463.028 154.367 461.261 156.5 459.661 158.3C456.461 162.033 453.228 165.367 449.961 168.3C446.761 171.233 442.928 174.067 438.461 176.8C436.728 176.133 435.361 175.233 434.361 174.1C433.361 173.033 432.861 171.9 432.861 170.7C432.861 169.9 433.028 169 433.361 168C433.761 166.933 434.194 165.6 434.661 164C435.128 162.333 435.528 160.267 435.861 157.8C436.261 155.333 436.461 152.2 436.461 148.4C436.461 146.2 436.394 144 436.261 141.8C436.194 139.533 436.161 137.8 436.161 136.6ZM511.285 130.6C511.018 134.733 510.285 138.3 509.085 141.3C507.885 144.233 506.152 146.833 503.885 149.1C501.685 151.3 498.985 153.3 495.785 155.1C492.585 156.9 488.852 158.633 484.585 160.3C484.585 160.7 484.552 161.133 484.485 161.6C484.485 162 484.485 162.433 484.485 162.9C484.485 163.767 484.552 164.667 484.685 165.6C484.818 166.533 485.052 167.4 485.385 168.2C485.718 169 486.185 169.667 486.785 170.2C487.385 170.667 488.152 170.9 489.085 170.9C490.885 170.9 492.652 170.5 494.385 169.7C496.118 168.9 497.752 167.933 499.285 166.8C500.885 165.6 502.352 164.333 503.685 163C505.085 161.6 506.318 160.333 507.385 159.2C508.052 159.8 508.618 160.367 509.085 160.9C506.085 164.9 502.785 168.233 499.185 170.9C495.652 173.5 492.285 175.167 489.085 175.9C484.485 175.367 480.885 173.7 478.285 170.9C475.752 168.033 474.485 164.6 474.485 160.6C474.485 157.867 474.852 155.1 475.585 152.3C476.385 149.433 477.452 146.7 478.785 144.1C480.185 141.433 481.785 138.933 483.585 136.6C485.452 134.267 487.418 132.233 489.485 130.5C491.618 128.767 493.785 127.4 495.985 126.4C498.252 125.4 500.485 124.9 502.685 124.9C505.752 125.3 508.618 127.2 511.285 130.6ZM504.385 133.9C502.585 134.167 500.718 134.9 498.785 136.1C496.852 137.3 495.018 138.9 493.285 140.9C491.618 142.9 490.085 145.233 488.685 147.9C487.285 150.567 486.185 153.433 485.385 156.5C490.718 153.833 495.152 150.567 498.685 146.7C502.218 142.767 504.118 138.5 504.385 133.9ZM513.515 170C513.848 168.067 514.415 165.533 515.215 162.4C516.082 159.2 517.082 155.833 518.215 152.3C519.348 148.7 520.548 145.1 521.815 141.5C523.082 137.9 524.315 134.667 525.515 131.8C526.382 129.733 527.148 128.133 527.815 127C528.482 125.8 529.215 124.8 530.015 124C530.948 124.133 531.915 124.367 532.915 124.7C533.915 125.033 534.882 125.433 535.815 125.9C536.748 126.367 537.582 126.867 538.315 127.4C539.048 127.867 539.615 128.333 540.015 128.8C538.215 130.933 536.615 133.367 535.215 136.1C533.882 138.833 532.515 142.333 531.115 146.6C534.715 143.4 537.882 140.333 540.615 137.4C543.415 134.467 546.015 131.2 548.415 127.6C548.815 127.267 549.515 127.1 550.515 127.1C551.448 127.1 552.348 127.267 553.215 127.6C554.082 127.867 554.682 128.267 555.015 128.8C553.815 132 553.215 135.167 553.215 138.3C553.215 141.233 553.648 143.433 554.515 144.9C554.448 145.3 553.982 146.067 553.115 147.2C552.315 148.333 551.415 149.4 550.415 150.4C548.615 149.467 547.015 148.2 545.615 146.6C544.215 144.933 543.182 143.133 542.515 141.2C539.382 143.4 536.715 145.567 534.515 147.7C532.315 149.767 530.415 152.1 528.815 154.7C527.282 157.233 525.948 160.167 524.815 163.5C523.748 166.833 522.715 170.8 521.715 175.4C521.115 175.333 520.382 175.1 519.515 174.7C518.715 174.367 517.882 173.933 517.015 173.4C516.215 172.867 515.482 172.3 514.815 171.7C514.148 171.1 513.715 170.533 513.515 170ZM589.184 132.2C589.118 133.467 588.884 134.8 588.484 136.2C588.151 137.533 587.718 138.767 587.184 139.9C586.651 140.967 586.084 141.867 585.484 142.6C584.884 143.333 584.318 143.7 583.784 143.7C583.051 143.633 582.618 143.133 582.484 142.2C582.484 142 582.551 141.7 582.684 141.3C582.884 140.833 583.084 140.333 583.284 139.8C583.484 139.267 583.651 138.733 583.784 138.2C583.984 137.667 584.084 137.2 584.084 136.8C584.084 135.867 583.851 135.1 583.384 134.5C582.984 133.833 582.418 133.5 581.684 133.5C579.018 133.5 576.984 135.167 575.584 138.5C574.184 141.833 573.484 146.733 573.484 153.2C573.484 153.867 573.518 154.267 573.584 154.4C574.984 154.333 576.218 154.3 577.284 154.3C578.418 154.233 579.518 154.2 580.584 154.2C580.651 154.333 580.684 154.6 580.684 155C580.684 155.6 580.551 156.033 580.284 156.3C578.751 156.633 577.518 156.933 576.584 157.2C575.718 157.4 575.051 157.6 574.584 157.8C574.118 158 573.818 158.233 573.684 158.5C573.618 158.7 573.584 159 573.584 159.4C573.584 159.933 573.584 160.467 573.584 161C573.651 161.533 573.684 162.2 573.684 163C573.684 168.6 572.151 173.1 569.084 176.5C566.084 179.9 561.884 181.867 556.484 182.4C555.551 182.333 554.584 182.067 553.584 181.6C552.584 181.133 551.618 180.533 550.684 179.8C549.818 179.067 549.051 178.233 548.384 177.3C547.718 176.433 547.251 175.533 546.984 174.6C546.984 172.067 547.518 169.667 548.584 167.4C549.651 165.067 551.084 163.033 552.884 161.3C554.751 159.5 556.918 158.067 559.384 157C561.918 155.867 564.651 155.2 567.584 155C567.584 153.333 567.418 151.7 567.084 150.1C566.751 148.5 566.384 146.967 565.984 145.5C565.651 143.967 565.318 142.5 564.984 141.1C564.651 139.633 564.484 138.2 564.484 136.8C564.484 135 564.851 133.233 565.584 131.5C566.318 129.7 567.284 128.067 568.484 126.6C569.684 125.067 571.084 123.767 572.684 122.7C574.284 121.633 575.951 120.9 577.684 120.5C578.418 120.7 579.384 121.3 580.584 122.3C581.851 123.233 583.084 124.3 584.284 125.5C585.484 126.7 586.551 127.933 587.484 129.2C588.418 130.4 588.984 131.4 589.184 132.2ZM556.184 177.8C557.784 177.133 559.284 176.167 560.684 174.9C562.151 173.633 563.418 172.2 564.484 170.6C565.551 169 566.384 167.3 566.984 165.5C567.651 163.7 567.984 161.933 567.984 160.2C566.651 160.4 565.184 161.033 563.584 162.1C561.984 163.1 560.484 164.333 559.084 165.8C557.684 167.2 556.518 168.667 555.584 170.2C554.651 171.733 554.184 173.067 554.184 174.2C554.184 175.667 554.851 176.867 556.184 177.8Z" fill="black"/>
<defs>
<clipPath id="clip0_308_351">
<rect width="94.7102" height="94.7102" fill="white" transform="translate(89.4191 213.95) rotate(-41.3936)"/>
</clipPath>
<clipPath id="clip1_308_351">
<rect width="94.7102" height="94.7102" fill="white" transform="translate(47.0174 133.864) rotate(15.5087)"/>
</clipPath>
<clipPath id="clip2_308_351">
<rect width="94.7102" height="94.7102" fill="white" transform="translate(238.36 144.097) rotate(-170.402)"/>
</clipPath>
<clipPath id="clip3_308_351">
<rect width="94.7102" height="94.7102" fill="white" transform="translate(185.678 222.948) rotate(-108.211)"/>
</clipPath>
<clipPath id="clip4_308_351">
<rect width="94.7102" height="94.7102" fill="white" transform="translate(190.025 66.7375) rotate(134.801)"/>
</clipPath>
<clipPath id="clip5_308_351">
<rect width="94.7102" height="94.7102" fill="white" transform="translate(101.464 63.9084) rotate(76.3967)"/>
</clipPath>
</defs>
</svg>
